<svg width="142" height="118" viewBox="0 0 142 118" fill="none" xmlns="http://www.w3.org/2000/svg">
<g clip-path="url(#clip0_7_166)">
<mask id="mask0_7_166" style="mask-type:luminance" maskUnits="userSpaceOnUse" x="0" y="0" width="142" height="118">
<path d="M142 0H0V118H142V0Z" fill="white"/>
</mask>
<g mask="url(#mask0_7_166)">
<path fill-rule="evenodd" clip-rule="evenodd" d="M105.969 48.3538V56.6541H36.0312V43.4562C44.7932 41.3088 53.9527 40.1699 63.3789 40.1699C78.4337 40.1699 92.8081 43.075 105.969 48.3538Z" fill="#5D3224"/>
<path d="M52.7785 40.2655C52.5429 40.806 52.209 41.4894 52.0715 41.7636C54.1787 42.331 58.3615 43.1254 58.2358 41.7636C58.0787 40.0614 57.5759 38.8924 57.1359 36.164C56.6959 33.4356 56.5394 30.8042 56.3047 29.283C56.07 27.7619 56.114 26.08 56.158 25.2901C56.202 24.5003 56.202 23.7252 55.5713 22.9061C54.9406 22.087 53.3419 22.5258 53.0192 22.6867C52.6965 22.8476 52.3592 22.7306 51.9192 23.1109C51.4792 23.4911 50.6725 23.886 50.2911 23.9738C49.9097 24.0616 49.7191 24.2663 49.9684 24.5442C50.2178 24.8221 50.5551 24.7344 50.8045 25.0415C51.0538 25.3486 51.5965 25.4218 52.1099 25.4803C52.6232 25.5388 53.0339 25.4657 53.3419 26.08C53.6499 26.6942 52.9459 27.4987 52.6379 28.5518C52.3299 29.6048 52.5939 31.594 52.1099 33.1443C51.6258 34.6947 51.3325 35.6454 51.4352 36.7423C51.5378 37.8393 51.3912 38.4828 51.3325 38.8924C51.2738 39.3019 51.4938 39.2873 51.6992 39.0679C51.9045 38.8485 51.9192 38.5998 52.2125 38.3561C52.4472 38.1611 52.5645 37.6768 52.5939 37.459C52.6554 37.5524 52.8315 37.8626 53.0436 38.3561C53.3088 38.973 53.0731 39.5899 52.7785 40.2655Z" fill="#5D3224"/>
<path d="M92.969 42.7859C92.5683 43.5611 92.0087 44.538 91.779 44.9295C94.8351 45.9716 100.604 50.284 100.747 48.2653C100.972 45.1172 100.187 41.2233 99.8029 37.1519C99.4192 33.0805 99.4446 29.1797 99.2464 26.9109C99.0481 24.642 99.277 22.1626 99.419 21.0007C99.561 19.8387 99.6365 18.694 98.7851 17.4235C97.9336 16.1529 95.5301 16.6459 95.038 16.8522C94.5458 17.0584 94.0591 16.853 93.3723 17.3718C92.6854 17.8907 91.4558 18.3956 90.8841 18.4883C90.3124 18.5809 90.0109 18.8648 90.352 19.2993C90.6931 19.7338 91.1998 19.6369 91.5381 20.1146C91.8763 20.5923 92.6705 20.7529 93.4228 20.889C94.1752 21.0252 94.7887 20.957 95.1837 21.8939C95.5786 22.8309 94.4606 23.9505 93.9031 25.4756C93.3457 27.0007 93.5416 29.9635 92.6758 32.2059C91.8099 34.4482 91.2841 35.8236 91.3288 37.4533C91.3735 39.0831 91.0942 40.0191 90.9676 40.6181C90.8411 41.2172 91.1674 41.2169 91.492 40.9128C91.8165 40.6088 91.8624 40.2431 92.3194 39.9116C92.6849 39.6465 92.9054 38.9427 92.9699 38.6239C93.0517 38.7678 93.2815 39.2429 93.5466 39.9922C93.878 40.9288 93.4698 41.8168 92.969 42.7859Z" fill="#5D3224"/>
<path d="M63.1505 40.3267C63.0317 40.6282 62.4335 41.4041 62.1493 41.7543H68.8609C68.6224 41.1528 68.1103 39.6886 67.9699 38.644C67.7944 37.3382 67.6054 36.2747 67.5244 35.0497C67.4434 33.8247 67.3354 32.2766 67.1599 30.7554C66.9844 29.2342 67.4328 28.965 67.4463 27.6053C67.4598 26.2457 66.5389 25.7072 65.7154 25.6803C64.892 25.6534 64.7165 25.8688 64.109 25.8957C63.5015 25.9226 63.461 26.2322 62.867 26.4745C62.273 26.7169 61.571 26.6495 61.598 26.8919C61.625 27.1342 61.6115 27.2419 62.003 27.4169C62.3945 27.5919 62.381 27.7938 62.705 28.0092C63.029 28.2246 63.2315 28.1842 64.109 28.413C64.9865 28.6419 64.703 29.3015 64.2575 30.0554C63.812 30.8092 63.515 31.4554 63.461 32.3573C63.407 33.2593 63.029 33.8651 62.381 35.0497C61.733 36.2343 61.517 37.0959 61.517 37.8093C61.517 38.5228 61.517 39.0209 61.274 39.4651C61.031 39.9094 61.2875 39.9498 61.517 39.8151C61.7465 39.6805 61.787 39.3844 62.1493 39.2901C62.5116 39.1959 62.5565 38.8863 62.57 38.5363C62.5835 38.1863 62.7725 38.1863 62.8265 38.4286C62.8805 38.6709 62.9615 38.9805 63.1505 39.2901C63.3395 39.5998 63.299 39.9498 63.1505 40.3267Z" fill="#5D3224"/>
<path fill-rule="evenodd" clip-rule="evenodd" d="M73.4149 41.9409C73.5369 41.9348 73.7589 41.8242 73.6711 41.43C73.6111 41.1609 73.2072 40.5761 72.6591 39.7825C72.2039 39.1233 71.6492 38.3201 71.1095 37.4343C69.9202 35.4821 69.9202 33.2744 70.6155 31.9425C71.3108 30.6105 71.6401 29.7895 71.7316 29.0779C71.7997 28.548 71.6446 28.0484 71.4778 27.5113C71.4207 27.3273 71.3622 27.1388 71.3108 26.9432C71.1845 26.4624 71.0942 26.2618 71.0084 26.0708C70.9574 25.9574 70.9079 25.8475 70.8534 25.6843C70.707 25.2464 70.524 25.1369 70.6155 25.6843C70.707 26.2317 70.707 26.9067 70.4874 27.2716C70.3735 27.4609 70.1809 27.5618 70.0014 27.6558C69.8349 27.7431 69.6796 27.8244 69.6092 27.965C69.556 28.0709 69.5439 28.1648 69.5316 28.2598C69.51 28.4266 69.488 28.5966 69.2432 28.8407C68.859 29.2239 68.7126 29.3516 68.7309 28.6583C68.7394 28.3385 68.8062 28.1663 68.8685 28.0054C68.9414 27.8175 69.0082 27.6452 68.9688 27.2716C68.9355 26.9561 68.9287 26.5876 68.9208 26.1611C68.9114 25.6505 68.9005 25.0566 68.8407 24.3706C68.7309 23.1117 68.9139 21.9075 69.4262 20.1559C69.9385 18.4044 70.4874 16.3062 70.5789 15.9413C70.6157 15.7947 70.614 15.3361 70.612 14.7558C70.6089 13.8914 70.6049 12.7571 70.7253 11.982C70.9167 10.7501 71.3397 9.73273 71.7584 8.72585C71.78 8.67392 71.8016 8.62202 71.8231 8.57013C72.2622 7.51189 72.5916 6.17998 71.8231 5.76034C71.2833 5.46556 70.6983 5.44987 70.1443 5.43502C69.9097 5.42872 69.6806 5.42258 69.4628 5.39543C69.381 5.38523 69.3032 5.37617 69.2292 5.36754C68.6409 5.29896 68.2834 5.25728 67.9259 4.88456C67.5233 4.46492 67.2672 4.28246 66.7548 4.11826C66.4779 4.0295 66.3667 4.01004 66.3028 3.94464C66.2484 3.88903 66.2282 3.80022 66.1693 3.60739C66.1505 3.54559 66.1308 3.48972 66.1129 3.43874C66.009 3.14356 65.9628 3.01222 66.4621 2.84108C66.5592 2.80779 66.6729 2.77249 66.7988 2.73344C67.4316 2.53704 68.3704 2.24565 69.042 1.63689C69.1987 1.4948 69.3284 1.37138 69.4414 1.26381C69.909 0.818861 70.0917 0.645015 70.7253 0.542163C71.0264 0.493278 71.3088 0.409643 71.6083 0.320929C72.0913 0.17787 72.619 0.0216038 73.3417 -0.0234432C74.5127 -0.0964247 75.6654 0.0130489 76.4156 1.10777C77.1658 2.20249 77.3488 3.95405 77.1658 5.39543C76.9828 6.83682 76.7633 8.60662 77.1658 10.942C77.3921 12.2553 77.5433 13.9838 77.7038 15.8196C77.8287 17.2486 77.9593 18.7424 78.1355 20.1559C78.5381 23.3854 78.9831 26.3959 79.4588 28.2751C79.5266 28.5427 79.5957 28.8092 79.6648 29.0756C80.0808 30.68 80.4958 32.2803 80.6056 34.0954C80.6103 34.1735 80.615 34.2517 80.6197 34.3301C80.7419 36.3755 80.8691 38.5024 82.0145 40.1894C83.2038 41.9409 84.7407 42.6707 86.5887 43.1816C88.0671 43.5903 89.8883 43.9358 90.614 44.0574L89.7541 44.5683L83.0391 43.0721C82.417 42.9688 80.8728 42.2474 79.6725 40.1894C78.5093 38.195 78.4239 37.67 78.3589 37.2712C78.3401 37.1556 78.323 37.0506 78.2819 36.9234C78.0989 36.3578 77.6415 36.5585 77.5317 37.0329C77.422 37.5073 78.4466 39.569 78.8857 40.1894C79.3009 40.7759 79.1273 41.0036 78.9215 41.2734C78.9097 41.289 78.8977 41.3047 78.8857 41.3206C78.8431 41.3772 78.7909 41.4375 78.734 41.5031C78.4974 41.7761 78.1798 42.1426 78.1355 42.7308C78.0916 43.3147 74.6652 42.6421 72.9575 42.2329L73.4149 41.9409ZM76.435 40.4913C76.6446 40.9689 76.7344 41.3206 76.435 41.1331C75.8495 40.7665 75.7166 39.9301 75.7166 39.2972C75.8862 39.536 76.2674 40.1092 76.435 40.4913Z" fill="#5D3224"/>
<path d="M18.2945 87.4307C17.1938 87.4307 16.2489 87.2754 15.4597 86.9648C14.6913 86.6541 14.0994 86.1053 13.6841 85.3184C13.2687 84.5314 13.061 83.4235 13.061 81.9946V80.9073C13.7048 80.9073 14.3383 80.9073 14.9613 80.9073C15.5843 80.9073 16.2073 80.9073 16.8304 80.9073V82.3052C16.8304 83.0714 16.8927 83.6617 17.0173 84.0758C17.1419 84.4693 17.3184 84.7489 17.5469 84.9146C17.7753 85.0595 18.0453 85.132 18.3568 85.132C18.8345 85.132 19.2083 84.9663 19.4783 84.635C19.769 84.2829 19.9144 83.6099 19.9144 82.6158C19.9144 81.8496 19.7898 81.2801 19.5406 80.9073C19.3121 80.5138 18.9383 80.2032 18.4191 79.9754C17.8999 79.7269 17.2353 79.4266 16.4254 79.0746C15.6985 78.7639 15.0963 78.3912 14.6186 77.9563C14.141 77.5214 13.7879 76.9726 13.5595 76.3099C13.331 75.6472 13.2168 74.8395 13.2168 73.8869C13.2168 72.6858 13.3726 71.7124 13.6841 70.9669C14.0164 70.2214 14.5563 69.6829 15.304 69.3516C16.0724 68.9995 17.1004 68.8235 18.388 68.8235C20.0494 68.8235 21.3162 69.1859 22.1885 69.9107C23.0815 70.6148 23.528 71.6814 23.528 73.1103V75.3158C22.9257 75.3158 22.3234 75.3158 21.7212 75.3158C21.1397 75.3158 20.5374 75.3158 19.9144 75.3158V74.1975C19.9144 73.2656 19.8002 72.6133 19.5717 72.2405C19.364 71.8677 18.9798 71.6814 18.4191 71.6814C17.8791 71.6814 17.4949 71.847 17.2665 72.1784C17.0381 72.5097 16.9238 73.0482 16.9238 73.7937C16.9238 74.4771 17.0588 75.0155 17.3288 75.409C17.6196 75.7818 17.983 76.0717 18.4191 76.2788C18.8552 76.4652 19.3225 76.6516 19.8209 76.838C20.7347 77.19 21.4824 77.5524 22.0638 77.9252C22.6453 78.2773 23.0711 78.7743 23.3411 79.4163C23.611 80.0375 23.746 80.9384 23.746 82.1188C23.746 83.4442 23.5176 84.5004 23.0607 85.2873C22.6246 86.0536 21.9912 86.6024 21.1605 86.9337C20.3505 87.2651 19.3952 87.4307 18.2945 87.4307Z" fill="#5D3224"/>
<path d="M37.3788 87.5861C36.6311 87.5861 35.9458 87.5343 35.3227 87.4307C34.6997 87.3272 34.1598 87.1097 33.7029 86.7784C33.246 86.447 32.8929 85.9604 32.6437 85.3184C32.3945 84.6557 32.2699 83.7652 32.2699 82.6469V68.8545H35.8835V83.672C35.8835 84.1069 35.9458 84.459 36.0704 84.7282C36.2158 84.9767 36.4027 85.1424 36.6311 85.2252C36.8596 85.308 37.1088 85.3495 37.3788 85.3495C37.628 85.3495 37.8668 85.308 38.0952 85.2252C38.3237 85.1424 38.5002 84.9767 38.6248 84.7282C38.7702 84.459 38.8429 84.1069 38.8429 83.672V68.8545H42.4565V82.6469C42.4565 83.7445 42.3319 84.6246 42.0826 85.2873C41.8334 85.95 41.4804 86.447 41.0235 86.7784C40.5874 87.1097 40.0474 87.3272 39.4036 87.4307C38.7806 87.5343 38.1056 87.5861 37.3788 87.5861Z" fill="#5D3224"/>
<path d="M51.5598 87.2133V68.8545H58.2885C59.5138 68.8545 60.438 69.1341 61.061 69.6933C61.6841 70.2317 61.9956 70.9876 61.9956 71.9609V74.8188C61.9956 75.7921 61.736 76.6102 61.2168 77.2729C60.6976 77.9355 59.8877 78.3187 58.787 78.4222C59.4931 78.5258 59.9915 78.7639 60.2822 79.1367C60.5938 79.4887 60.8637 80.0686 61.0922 80.8763L62.8367 87.2133H58.8181L57.4786 81.1248C57.4163 80.7934 57.3332 80.4931 57.2294 80.2239C57.1255 79.9547 57.0113 79.7476 56.8867 79.6026C56.7621 79.437 56.596 79.3541 56.3883 79.3541H55.3291V87.2133H51.5598ZM55.3291 76.869H56.8244C57.3644 76.869 57.7693 76.7137 58.0393 76.4031C58.3093 76.0924 58.4443 75.5643 58.4443 74.8188V72.6133C58.4443 71.9506 58.3197 71.4846 58.0705 71.2154C57.8213 70.9462 57.4994 70.8116 57.1048 70.8116H55.3291V76.869Z" fill="#5D3224"/>
<path d="M71.1829 87.2133V68.8545H74.7965V87.2133H71.1829Z" fill="#5D3224"/>
<path d="M91.2506 87.2133L87.7305 77.6767L91.1883 68.8545H95.0511L91.2817 77.6767L95.1757 87.2133H91.2506ZM83.9611 87.2133V68.8545H87.5747V87.2133H83.9611Z" fill="#5D3224"/>
<path d="M102.221 87.2133L105.523 68.8545H110.694L113.934 87.2133H109.884L109.323 83.8273H106.644L106.115 87.2133H102.221ZM106.707 82.0256H109.292L108.015 72.0541L106.707 82.0256Z" fill="#5D3224"/>
<path d="M122.916 87.2133V71.4018H120.05V68.8545H129.395V71.4018H126.529V87.2133H122.916Z" fill="#5D3224"/>
<path d="M50.1873 110.773C49.5767 110.773 49.0347 110.699 48.5612 110.549C48.1002 110.413 47.7326 110.121 47.4584 109.673C47.1968 109.214 47.0659 108.537 47.0659 107.642V101.864C47.0659 101.205 47.1968 100.696 47.4584 100.336C47.7326 99.9753 48.1064 99.7268 48.5799 99.5901C49.0534 99.441 49.5954 99.3665 50.206 99.3665C50.829 99.3665 51.3648 99.441 51.8134 99.5901C52.2745 99.7392 52.6296 99.9939 52.8788 100.354C53.128 100.715 53.2526 101.218 53.2526 101.864V104.138H51.0845V101.771C51.0845 101.473 51.0471 101.249 50.9723 101.1C50.8976 100.938 50.7917 100.833 50.6546 100.783C50.53 100.733 50.3804 100.708 50.206 100.708C50.0316 100.708 49.8758 100.733 49.7387 100.783C49.6017 100.833 49.4957 100.938 49.421 101.1C49.3462 101.249 49.3088 101.473 49.3088 101.771V108.443C49.3088 108.729 49.3462 108.953 49.421 109.114C49.4957 109.263 49.6017 109.369 49.7387 109.431C49.8758 109.481 50.0316 109.506 50.206 109.506C50.3804 109.506 50.53 109.481 50.6546 109.431C50.7917 109.369 50.8976 109.263 50.9723 109.114C51.0471 108.953 51.0845 108.729 51.0845 108.443V106.263H53.2526V107.623C53.2526 108.53 53.128 109.214 52.8788 109.673C52.6296 110.121 52.2745 110.413 51.8134 110.549C51.3648 110.699 50.8228 110.773 50.1873 110.773Z" fill="#5D3224"/>
<path d="M61.4853 110.773C60.8747 110.773 60.3389 110.699 59.8778 110.549C59.4168 110.413 59.0554 110.121 58.7938 109.673C58.5446 109.214 58.4199 108.537 58.4199 107.642V101.864C58.4199 101.205 58.5446 100.696 58.7938 100.336C59.0554 99.9753 59.4168 99.7268 59.8778 99.5901C60.3513 99.441 60.8934 99.3665 61.504 99.3665C62.1021 99.3665 62.6316 99.441 63.0927 99.5901C63.5662 99.7392 63.9338 99.9939 64.1955 100.354C64.4696 100.715 64.6067 101.218 64.6067 101.864V107.623C64.6067 108.53 64.4696 109.214 64.1955 109.673C63.9338 110.121 63.5662 110.413 63.0927 110.549C62.6316 110.699 62.0958 110.773 61.4853 110.773ZM61.4853 109.506C61.6722 109.506 61.8342 109.475 61.9712 109.413C62.1208 109.35 62.2329 109.245 62.3077 109.096C62.3949 108.934 62.4385 108.717 62.4385 108.443V101.771C62.4385 101.497 62.3949 101.286 62.3077 101.137C62.2329 100.976 62.1208 100.864 61.9712 100.802C61.8342 100.739 61.6722 100.708 61.4853 100.708C61.2984 100.708 61.1364 100.739 60.9993 100.802C60.8622 100.864 60.7501 100.976 60.6629 101.137C60.5881 101.286 60.5507 101.497 60.5507 101.771V108.443C60.5507 108.717 60.5881 108.934 60.6629 109.096C60.7501 109.245 60.8622 109.35 60.9993 109.413C61.1364 109.475 61.2984 109.506 61.4853 109.506Z" fill="#5D3224"/>
<path d="M69.9778 110.549V99.5342H75.0618V101.063H72.2394V104.007H74.6319V105.703H72.2394V110.549H69.9778Z" fill="#5D3224"/>
<path d="M80.0541 110.549V99.5342H85.1381V101.063H82.3158V104.007H84.7082V105.703H82.3158V110.549H80.0541Z" fill="#5D3224"/>
<path d="M90.1305 110.549V99.5342H95.2144V101.063H92.3921V104.007H94.7845V105.703H92.3921V109.058H95.2144V110.549H90.1305Z" fill="#5D3224"/>
</g>
</g>
<defs>
<clipPath id="clip0_7_166">
<rect width="142" height="118" fill="white"/>
</clipPath>
</defs>
</svg>
